<svg id="Layer_1" data-name="Layer 1" xmlns="http://www.w3.org/2000/svg" width="16" height="6.01" viewBox="0 0 16 6.01">
  <defs>
    <style>
      .cls-1 {
        fill: gold;
      }

      .cls-2 {
        fill: #e31c79;
      }
    </style>
  </defs>
  <path class="cls-1" d="M4,1A2,2,0,1,1,2,3,2,2,0,0,1,4,1Zm2.62.55A3,3,0,0,0,1,2.5H.5A.5.5,0,0,0,0,3a.5.5,0,0,0,.5.5H1A3,3,0,0,0,7,3,1,1,0,0,1,9,3a3,3,0,0,0,6,.5h.54A.5.5,0,0,0,16,3a.5.5,0,0,0-.5-.5H15a3,3,0,0,0-5.58-.95A2,2,0,0,0,8,1,2,2,0,0,0,6.62,1.55ZM14,3a2,2,0,1,1-2-2A2,2,0,0,1,14,3Z"/>
  <circle class="cls-2" cx="4" cy="3" r="2"/>
  <circle class="cls-2" cx="12" cy="3" r="2"/>
</svg>
